<svg xmlns="http://www.w3.org/2000/svg" viewBox="0 0 64 64" role="img" aria-label="Septic System Cost and Size Estimator icon">
  <defs>
    <linearGradient id="g" x1="0%" y1="0%" x2="100%" y2="100%">
      <stop offset="0%" stop-color="#236c5f"/>
      <stop offset="100%" stop-color="#134d44"/>
    </linearGradient>
  </defs>
  <rect width="64" height="64" rx="18" fill="url(#g)"/>
  <path d="M18 22c0-3.3 2.7-6 6-6h16c3.3 0 6 2.7 6 6v4H18v-4Zm0 10h28v10c0 3.3-2.7 6-6 6H24c-3.3 0-6-2.7-6-6V32Zm7.5 3.5c-1.7 0-3 1.3-3 3s1.3 3 3 3h13c1.7 0 3-1.3 3-3s-1.3-3-3-3h-13Z" fill="#f8f5ef"/>
</svg>
